<svg width="83" height="28" viewBox="0 0 83 28" fill="none" xmlns="http://www.w3.org/2000/svg">
<path d="M82.0105 28H0V0H82.0105V28ZM79.0782 2.93222H2.93222V25.0678H79.0782V2.93222ZM8.46222 17.5778L10.1858 15.834C10.9184 16.6476 11.8098 17.1624 12.9407 17.1624C14.0716 17.1624 14.4853 16.786 14.4853 16.1716C14.4853 15.6567 14.1742 15.3938 13.4353 15.2989L12.306 15.1604C9.95556 14.8618 8.79822 13.832 8.79822 11.9482C8.79822 9.95556 10.3631 8.55556 12.8411 8.55556C15.0189 8.55556 16.0316 9.14978 17.0816 10.1811L15.4 11.9093C14.7467 11.256 13.874 10.8391 13.0029 10.8391C12.012 10.8391 11.6153 11.1953 11.6153 11.7118C11.6153 12.2656 11.8533 12.5627 12.7042 12.6824L13.8724 12.838C16.1311 13.1351 17.2947 14.1649 17.2947 15.9693C17.2947 17.9698 15.512 19.4367 12.8364 19.4367C10.8391 19.4444 9.53089 18.7662 8.46222 17.5778ZM22.7873 19.2033C20.7651 19.2033 19.6964 18.1533 19.6964 16.1716V11.0771H18.2296V8.79822H18.9638C19.7556 8.79822 19.9936 8.40156 19.9936 7.68911V5.978H22.6287V8.79822H24.6898V11.0771H22.6287V16.9229H24.5311V19.2018L22.7873 19.2033ZM26.7307 19.2033V8.79822H29.6629V11.0569H29.7624C30.0004 9.90733 30.7938 8.79822 32.4178 8.79822H32.9327V11.5329H32.2C30.4889 11.5329 29.6629 11.9093 29.6629 13.118V19.2018L26.7307 19.2033ZM33.9827 13.9922C33.9827 10.7007 35.7264 8.55556 38.8578 8.55556C42.3049 8.55556 43.6924 11.0444 43.6924 13.8662V14.7389H37.0222V14.8944C37.0222 16.2618 37.7564 17.1329 39.3213 17.1329C40.5502 17.1329 41.2238 16.5589 41.8771 15.8884L43.344 17.7116C42.4107 18.7802 40.8862 19.4351 38.9884 19.4351C35.7856 19.4444 33.9827 17.3196 33.9827 13.9907V13.9922ZM37.0222 12.8613V13.0169H40.6684V12.8411C40.6684 11.5733 40.0944 10.7209 38.9247 10.7209C37.7549 10.7209 37.0222 11.5733 37.0222 12.8613ZM52.1609 17.458H52.0613C51.7642 18.5873 50.6147 19.4398 49.2613 19.4398C46.6262 19.4398 45.2589 17.5171 45.2589 13.9953C45.2589 10.4736 46.6247 8.55556 49.2598 8.55556C50.6069 8.55556 51.7564 9.38778 52.0598 10.5373H52.1593V8.79822H55.0916V19.2018H52.1531L52.1609 17.458ZM52.1609 15.5353V12.4647C52.1609 11.5127 51.3489 10.9387 50.2382 10.9387C49.1276 10.9387 48.3093 11.7911 48.3093 13.0978V14.9022C48.3093 16.2089 49.1213 17.0613 50.2304 17.0613C51.3396 17.0613 52.1531 16.4889 52.1531 15.5353H52.1609ZM57.8278 19.2018V8.79822H60.76V10.5622H60.8798C61.2562 9.45156 62.1242 8.56022 63.6798 8.56022C65.1062 8.56022 66.136 9.29445 66.5918 10.6618H66.6525C67.0149 9.48889 68.2236 8.55556 69.8087 8.55556C71.8091 8.55556 72.9198 10.0613 72.9198 12.6778V19.1971H69.986V12.9204C69.986 11.5733 69.5318 10.9387 68.5596 10.9387C67.6884 10.9387 66.836 11.4333 66.836 12.4647V19.2018H63.9038V12.9204C63.9038 11.5733 63.4278 10.9387 62.4758 10.9387C61.6249 10.9387 60.7522 11.4333 60.7522 12.4647V19.2018H57.8278Z" fill="#BD0042"/>
</svg>
